<?xml version="1.0" standalone="no"?>
<!DOCTYPE svg PUBLIC "-//W3C//DTD SVG 20010904//EN"
 "http://www.w3.org/TR/2001/REC-SVG-20010904/DTD/svg10.dtd">
<svg version="1.0" xmlns="http://www.w3.org/2000/svg"
 width="400.000000pt" height="400.000000pt" viewBox="0 0 400.000000 400.000000"
 preserveAspectRatio="xMidYMid meet">

<g transform="translate(0.000000,400.000000) scale(0.100000,-0.100000)"
fill="#000000" stroke="none">
<path d="M1895 3976 c-27 -7 -66 -20 -85 -28 -19 -9 -332 -192 -695 -407 -717
-427 -735 -439 -800 -563 -65 -123 -65 -117 -65 -988 0 -853 1 -859 56 -977
17 -35 53 -83 93 -124 59 -58 139 -109 731 -460 366 -216 690 -402 719 -412
85 -29 266 -21 342 14 30 14 347 199 703 410 706 418 735 438 795 557 63 124
61 96 61 992 0 899 2 873 -63 994 -63 119 -80 131 -795 555 -365 217 -691 405
-725 419 -74 30 -197 38 -272 18z m266 -113 c35 -17 350 -200 699 -407 530
-314 643 -385 686 -430 51 -54 87 -115 100 -171 l7 -30 -31 29 c-39 36 -109
46 -165 23 -50 -21 -1277 -780 -1348 -834 -31 -23 -71 -64 -88 -90 -63 -94
-61 -69 -61 -932 0 -510 4 -799 10 -823 12 -42 53 -95 84 -109 14 -6 -7 -8
-64 -6 -58 2 -100 10 -131 24 -80 36 -1339 787 -1382 824 -54 47 -102 128
-122 204 -23 89 -23 1621 0 1710 20 75 68 157 120 201 30 27 1277 774 1372
823 41 21 98 30 174 27 60 -2 89 -9 140 -33z m367 -2135 l3 -56 64 6 c75 6 76
5 47 -88 l-18 -55 -45 -1 c-82 -2 -156 -55 -172 -124 -16 -63 13 -85 119 -93
78 -6 117 -27 139 -73 25 -53 23 -153 -5 -226 -22 -59 -102 -178 -120 -178 -6
0 -10 -30 -10 -69 l0 -70 -42 -25 c-23 -14 -45 -23 -50 -20 -4 3 -8 30 -8 60
0 59 1 58 -53 43 -21 -6 -52 -7 -69 -4 -29 7 -30 8 -23 54 12 83 22 94 86 96
103 3 189 80 189 169 0 54 -24 72 -110 80 -130 12 -175 59 -167 178 5 82 47
176 106 238 39 41 41 46 41 106 0 63 1 64 38 88 20 14 42 24 47 22 6 -1 11
-28 13 -58z m662 -680 l0 -53 -148 -89 c-81 -50 -157 -96 -169 -104 -23 -14
-23 -14 -23 40 l0 55 168 101 c92 56 168 101 170 102 1 0 2 -24 2 -52z"/>
</g>
</svg>
